<?xml version="1.0" encoding="UTF-8"?>
<svg id="Layer_1" xmlns="http://www.w3.org/2000/svg" version="1.1" viewBox="0 0 160 65.1">
  <!-- Generator: Adobe Illustrator 29.3.1, SVG Export Plug-In . SVG Version: 2.1.0 Build 151)  -->
  <defs>
    <style>
      .st0 {
        fill: #cfc09d;
      }

      .st1 {
        fill: #1b618c;
        stroke: #fff;
        stroke-miterlimit: 10;
        stroke-width: .2px;
      }
    </style>
  </defs>
  <g id="Text">
    <g>
      <path class="st1" d="M17.2,39.8v-4.9h.4l1.4,2.8c1.1,1.3,2.1,1.7,3.2,1.7s2.4-.7,2.4-2.1-.6-2-3.4-3.5c-2.5-1.3-3.9-2.8-3.9-5.2s2.1-4.7,5.1-4.7,2.7.4,3.8,1.1v4.7h-.4l-1.8-3.1c-.5-.6-1.1-1-2.3-1s-2,.8-2,2.1.6,1.9,3.1,3.3c3.1,1.8,4.1,3.1,4.1,5.2s-1.8,4.9-5.3,4.9-3.2-.5-4.5-1.3h0Z"/>
      <path class="st1" d="M31.4,39.5h1.4v-9.7h-2.5l-1.4,2.7h-.3v-4h10.6v4h-.3l-1.3-2.7h-2.5v9.6h0c0,0,1.3,0,1.3,0v1.3h-5v-1.3h0Z"/>
      <path class="st1" d="M49.4,36.9v3.8h-8.9v-1.3h1.4v-9.6l-1.6-1.1v-.3h8.7v3.8h-.3l-1.3-2.5h-3.3v3.9h2.1v-1.5h1.1v4.4h-1.1v-1.4h0c0,0-2,0-2,0v4.4h3.6l1.4-2.5h.3Z"/>
      <path class="st1" d="M54.8,36v3.3h0c0,0,1.5,0,1.5,0v1.3h-5.2v-1.3h1.4v-9.6l-1.6-1.1v-.3h4.9c3,0,4.7,1.2,4.7,3.5s-2.2,4.1-4.8,4.1h-1ZM54.8,29.8v4.9h.9c1.5,0,2.6-1,2.6-2.6s-1.1-2.3-2.5-2.3c0,0-.9,0-.9,0Z"/>
      <path class="st1" d="M73,29.9v9.5h0c0,0,1.3,0,1.3,0v1.3h-5v-1.3h1.4v-4.5h-5.3v4.4h0c0,0,1.3,0,1.3,0v1.3h-5v-1.3h1.4v-9.6l-1.6-1.1v-.3h5.3v.3l-1.6,1.1v3.8h5.3v-3.8l-1.6-1.1v-.3h5.3v.3l-1.6,1.1h0Z"/>
      <path class="st1" d="M100.7,39v1.7h-6.7v-1.7h1.9c0-.1-.6-10.9-.6-10.9l-5.1,12.6h-1l-4.8-12.7-.6,10.9h.1c0,.1,1.8.1,1.8.1v1.7h-5.4v-1.7h1.9c0-.1.7-12.8.7-12.8l-2.1-1.5v-.4h5.3l4.3,11.4h.2l4.6-11.4h5.1v.4l-2.1,1.4.8,12.7h.1c0,.1,1.8.1,1.8.1h0Z"/>
      <path class="st1" d="M113.1,39.5v1.3h-4.5v-1.3h1.1c0,0-.8-2.1-.8-2.1h-4.2l-.7,2h0c0,0,1.1,0,1.1,0v1.3h-3.6v-1.3h1c0,0,4.2-11,4.2-11h.9l4.4,10.9h0c0,0,.9,0,.9,0ZM108.4,36.1l-1.7-4.2h0l-1.5,4.2h3.3,0Z"/>
      <path class="st1" d="M125.1,39.5v1.3h-3.1l-3.6-5.2h-.8v3.8h0c0,0,1.3,0,1.3,0v1.3h-5v-1.3h1.4v-9.6l-1.6-1.1v-.3h4.2c3.4,0,5,1.2,5,3.3s-1.1,2.9-2.5,3.5l3.1,4.2h.1c0,0,1.3,0,1.3,0h0ZM117.7,34.2h.5c1.6,0,2.7-.9,2.7-2.4s-.9-2-2.3-2h-.9v4.4Z"/>
      <path class="st1" d="M126,39.4h1.4v-9.5l-1.6-1.1v-.3h5.3v.3l-1.6,1.1v9.4h0c0,0,1.3,0,1.3,0v1.3h-5v-1.3h0Z"/>
      <path class="st1" d="M141.5,36.9v3.8h-8.9v-1.3h1.4v-9.6l-1.6-1.1v-.3h8.7v3.8h-.3l-1.4-2.5h-3.3v3.9h2.1v-1.5h1.1v4.4h-1.1v-1.4h0c0,0-2,0-2,0v4.4h3.6l1.4-2.5h.3Z"/>
    </g>
  </g>
  <g id="Corners">
    <rect class="st0" x="10.5" y="44" width=".9" height="11.4"/>
    <rect class="st0" x="10.5" y="54.5" width="11.4" height=".9"/>
    <rect class="st0" x="148.7" y="10" width=".9" height="11.4"/>
    <rect class="st0" x="138.2" y="10" width="11.4" height=".9"/>
    <rect class="st0" x="148.7" y="10" width=".9" height="11.4"/>
    <rect class="st0" x="138.2" y="10" width="11.4" height=".9"/>
    <rect class="st0" x="138.2" y="54.5" width="11.4" height=".9"/>
    <rect class="st0" x="148.7" y="44" width=".9" height="11.4"/>
    <rect class="st0" x="138.2" y="54.5" width="11.4" height=".9"/>
    <rect class="st0" x="148.7" y="44" width=".9" height="11.4"/>
    <rect class="st0" x="10.3" y="10.1" width="11.4" height=".9"/>
    <rect class="st0" x="10.3" y="10.1" width=".9" height="11.4"/>
  </g>
</svg>